<svg version="1.2" xmlns="http://www.w3.org/2000/svg" viewBox="0 0 664 782" width="664" height="782">
	<title>LogoAban (1)-ai</title>
	<style>
		.s0 { fill: #d3b231 } 
		.s1 { fill: #888888 } 
		.s2 { fill: #8a7536 } 
		.s3 { fill: #aa963b } 
		.s4 { fill: #c9b762 } 
	</style>
	<g id="Layer 1">
		<g id="&lt;Group&gt;">
			<g id="&lt;Group&gt;">
				<path id="&lt;Path&gt;" class="s0" d="m372.1 124c11.5 23.6 22.7 46.5 33.9 69.5 4.6 9.4 9 18.8 13.8 28.1 1.5 2.8 1.1 4.6-0.7 7-57.9 75.8-115.6 151.7-173.4 227.6q-42.4 55.7-84.7 111.4c-0.8 1-1.7 1.9-3.1 2.5q3.6-12.5 7.3-25c9-30.4 17.9-60.9 26.8-91.3 0.5-1.8 1.2-3.5 2.1-5.1q87.9-160.6 175.8-321.1c0.6-1 1.2-2 2.2-3.6z"/>
				<path id="&lt;Path&gt;" class="s1" d="m631.1 737.7c-3.2-3-6.4-6-9.5-9.1-38.3-38.2-77-75.9-114.7-114.6q-68.1-69.7-136.1-139.3c-18.3-18.7-36.5-37.4-54.8-56-2.4-2.4-2.5-3.8-0.3-6.4q25-29.9 49.5-60.1c2.3-2.9 3.2-2.8 5.2 0.1 27.3 40.3 54.7 80.6 82.1 120.9q88.2 129.6 176.3 259.2c1 1.5 2 3.1 2.9 4.7q-0.3 0.3-0.6 0.6z"/>
				<path id="&lt;Path&gt;" class="s1" d="m444.4 273.8q106 243.7 212 487.4-0.4 0.3-0.9 0.5-14.4-22.2-28.8-44.4c-54.4-84.2-108.8-168.4-163.4-252.4-2.7-4.1-3.2-8.3-3.6-12.7-1.8-19.1-3.3-38.3-5.1-57.4-1.9-22.1-4-44.2-6-66.4-1.5-16.2-2.9-32.4-4.3-48.6-0.1-2-0.4-4-0.6-5.9q0.4-0.1 0.7-0.1z"/>
				<path id="&lt;Path&gt;" class="s2" d="m213 403.5c0.6-7.2 3.2-13.9 5-20.7 33-122.5 66.1-244.9 99.2-367.3 0.2-1.1 0.6-2 0.9-3.1 1.3 0.5 1.5 1.8 2 2.8 15.8 31.9 31.5 63.7 47.4 95.6 1 2.1 1.2 3.6 0 5.8-50.8 94.4-100.7 189.3-152.2 283.3-0.7 1.2-1 2.8-2.4 3.5z"/>
				<path id="&lt;Path&gt;" class="s3" d="m434.6 575.8c-0.8 1.1-2.2 1.2-3.4 1.7-38 14.9-76.1 29.6-114.1 44.5-7.6 3-15.6 2.5-23.5 3.2-25.2 2.3-50.4 4.2-75.6 6.3q-31.7 2.5-63.3 5c-3.7 0.3-7.4 0.5-11.1 0.9-2.2 0.2-2.6-0.6-2-2.5 6.1-18.3 12.1-36.7 18-55 0.9-2.6 2.8-2 4.5-2 23.6-0.2 47.2-0.3 70.8-0.5 59.4-0.6 118.7-1.1 178.1-1.6 7.1-0.1 14.3 0 21.6 0z"/>
				<path id="&lt;Path&gt;" class="s3" d="m62.6 645.2c44.5-110 88.8-219.4 133.2-329 1.1 1.4 0.8 2.7 0.8 3.9 0.4 33.1 0.9 66.3 1.4 99.4 0 1.9-0.5 3.6-1.4 5.3q-56.4 106.4-112.8 212.8c-1.1 2.2-2.4 3.4-5 3.9-5.2 0.9-10.3 2.3-16.2 3.7z"/>
				<path id="&lt;Path&gt;" class="s3" d="m311.4 24.1c-35.9 130.9-71.5 261.1-107.2 391.2q-0.4 0-0.7 0 0-0.9 0-1.9c-0.5-38.2-1-76.3-1.5-114.5-0.1-4.5 1.6-8.5 3.2-12.5 34.6-86.4 69.2-172.8 103.8-259.1 0.4-0.9 0.5-2.1 2.4-3.2z"/>
				<path id="&lt;Path&gt;" class="s4" d="m72.2 650.1c77.6-7.1 154.1-14.1 230.7-21.1 0 1.7-1.3 1.7-2.1 2.1-25.8 12.9-51.3 26.4-77.5 38.5-20.4 9.4-41.5 17.2-62.3 25.7-1.2 0.5-2.2 0.5-3.3-0.1-28.2-14.9-56.4-29.7-85.5-45.1z"/>
				<path id="&lt;Path&gt;" class="s4" d="m152.3 699.8c-45.7 24-91.4 46.5-137.6 67.9-1.2-1.2-0.1-2.1 0.2-2.9q21.2-54 42.4-107.9c0.7-1.6 1-3.5 3.8-2.1 30.1 15 60.3 29.8 91.2 45z"/>
				<path id="&lt;Path&gt;" class="s1" d="m447.4 446.5c-7-10.1-13.6-19.5-20.2-28.9-17-24.2-33.9-48.4-50.9-72.5-1.8-2.5-1.7-4 0.2-6.4 18.8-24.8 37.5-49.7 56.2-74.6 0.5-0.6 1-1.2 2.2-2.7 0.5 5.6 1 10.3 1.4 15q3.2 40.6 6.3 81.2c1.7 22.3 3.2 44.6 5.1 66.9 0.6 7 0.8 14-0.3 22z"/>
				<path id="&lt;Path&gt;" class="s2" d="m91.3 642.2c30.2-58.9 60.1-117.2 90.1-175.8 0.8 1.4 0.2 2.2-0.1 3.1-16.5 55.3-33.1 110.6-49.6 166-0.8 2.5-1.8 3.5-4.6 3.7-11.7 0.8-23.4 1.9-35.8 3z"/>
				<path id="&lt;Path&gt;" class="s2" d="m212.9 403.4q-0.2 0.6-0.3 1.2c-0.1-0.1-0.2-0.1-0.3-0.2 0-0.5-0.1-1 0.7-0.9z"/>
				<path id="&lt;Path&gt;" class="s1" d="m632.3 738c0.5 0.5 0.7 1 0.2 1.6q-0.3-0.6-0.6-1.2 0.2-0.2 0.4-0.4z"/>
				<path id="&lt;Path&gt;" class="s1" d="m631.9 738.4q-0.4-0.4-0.8-0.7 0.3-0.3 0.6-0.6 0.3 0.4 0.6 0.9-0.2 0.2-0.4 0.4z"/>
			</g>
		</g>
	</g>
</svg>